<svg t="1683818059121" class="icon" viewBox="0 0 1024 1024" version="1.1" xmlns="http://www.w3.org/2000/svg" p-id="2833" width="200" height="200"><path d="M 512 64 C 265 64 64 265 64 512 s 201 448 448 448 s 448 -201 448 -448 S 759 64 512 64 Z m 0 806.4 c -197.6 0 -358.4 -160.8 -358.4 -358.4 S 314.4 153.6 512 153.6 S 870.4 314.4 870.4 512 S 709.6 870.4 512 870.4 Z" fill="" p-id="2834"></path><path d="M 676.6 347.4 c -17.4 -17.4 -45.9 -17.4 -63.4 0 L 512 448.6 L 410.8 347.4 c -17.4 -17.4 -45.9 -17.4 -63.4 0 c -17.4 17.4 -17.4 45.9 0 63.4 L 448.6 512 L 347.4 613.2 c -17.4 17.4 -17.4 45.9 0 63.4 c 17.4 17.4 45.9 17.4 63.4 0 L 512 575.4 l 101.2 101.2 c 17.4 17.4 45.9 17.4 63.4 0 c 17.4 -17.4 17.4 -45.9 0 -63.4 L 575.4 512 l 101.2 -101.2 c 17.4 -17.4 17.4 -46 0 -63.4 Z" fill="" p-id="2835"></path></svg>